<svg width="50" height="45" viewBox="0 0 50 45" fill="none" xmlns="http://www.w3.org/2000/svg">
<path d="M48.6111 19.9447H46.0502C45.2863 18.2085 44.1751 16.672 42.8035 15.3872L44.4442 8.83317H41.6663C39.1142 8.83317 36.8571 10.0051 35.3293 11.8107C34.6695 11.7152 34.0185 11.6111 33.3327 11.6111H22.2211C15.5021 11.6111 9.90294 16.3855 8.60949 22.7226H4.85934C3.57457 22.7226 2.55891 21.5507 2.81933 20.2225C3.01031 19.2329 3.93917 18.5558 4.94615 18.5558H5.03296C5.31943 18.5558 5.55382 18.3214 5.55382 18.0349V16.2987C5.55382 16.0123 5.31943 15.7779 5.03296 15.7779C2.55891 15.7779 0.35396 17.5488 0.0414475 19.9968C-0.340512 22.9657 1.96861 25.5005 4.85934 25.5005H8.3317C8.3317 30.0319 10.5367 34.0164 13.8875 36.5513V43.5568C13.8875 44.3207 14.5125 44.9457 15.2764 44.9457H20.8322C21.5961 44.9457 22.2211 44.3207 22.2211 43.5568V39.3899H33.3327V43.5568C33.3327 44.3207 33.9577 44.9457 34.7216 44.9457H40.2774C41.0413 44.9457 41.6663 44.3207 41.6663 43.5568V36.5513C42.6907 35.7787 43.6022 34.8672 44.3835 33.8341H48.6111C49.375 33.8341 50 33.2091 50 32.4452V21.3337C50 20.5697 49.375 19.9447 48.6111 19.9447ZM37.4995 25.5005C36.7356 25.5005 36.1106 24.8755 36.1106 24.1115C36.1106 23.3476 36.7356 22.7226 37.4995 22.7226C38.2634 22.7226 38.8885 23.3476 38.8885 24.1115C38.8885 24.8755 38.2634 25.5005 37.4995 25.5005ZM22.2211 8.83317H33.3327C33.8014 8.83317 34.2615 8.8679 34.7129 8.90262C34.7129 8.87658 34.7216 8.85921 34.7216 8.83317C34.7216 4.2323 30.9888 0.499512 26.388 0.499512C21.7871 0.499512 18.0543 4.2323 18.0543 8.83317C18.0543 9.01547 18.0977 9.18909 18.1064 9.37139C19.4259 9.03283 20.7975 8.83317 22.2211 8.83317Z" fill="white"/>
</svg>
