<svg width="43" height="43" viewBox="0 0 43 43" fill="none" xmlns="http://www.w3.org/2000/svg">
<path d="M34.6944 10.0645H8.30555C7.33395 10.0645 6.54629 10.8521 6.54629 11.8237V27.657C6.54629 28.6287 7.33395 29.4163 8.30555 29.4163H16.2222V32.0552H8.30555C5.87652 32.0552 3.9074 30.0861 3.9074 27.657V11.8237C3.9074 9.39469 5.87652 7.42557 8.30555 7.42557H34.6944C37.1234 7.42557 39.0926 9.39469 39.0926 11.8237V27.657C39.0926 29.8004 37.5594 31.5856 35.5301 31.9759C35.3981 31.2065 34.9756 30.496 34.316 30.0123L33.72 29.4163H34.6944C35.6661 29.4163 36.4537 28.6287 36.4537 27.657V11.8237C36.4537 10.8521 35.6661 10.0645 34.6944 10.0645ZM20.2339 18.3676C19.8565 17.9903 19.289 17.8774 18.796 18.0816C18.3029 18.2858 17.9815 18.767 17.9815 19.3006V37.7728C17.9815 38.3507 18.3576 38.8614 18.9095 39.0329C19.4615 39.2043 20.0607 38.9965 20.3881 38.5203L24.7279 32.2081L32.2236 33.7861C32.795 33.9065 33.3775 33.6369 33.6556 33.1236C33.9336 32.6101 33.8412 31.975 33.4283 31.5621L20.2339 18.3676ZM20.6204 33.5247V22.4861L28.4239 30.2896L24.4107 29.4446C23.8894 29.3349 23.3534 29.5493 23.0517 29.9882L20.6204 33.5247Z" fill="white"/>
</svg>
