<svg width="55" height="44" viewBox="0 0 55 44" fill="none" xmlns="http://www.w3.org/2000/svg">
<path d="M31.9859 4.46875C31.9859 6.26484 30.9203 7.82031 29.3906 8.525L38.5 16.5L47.4719 14.7039C47.0164 14.0422 46.75 13.2344 46.75 12.375C46.75 10.0977 48.5977 8.25 50.875 8.25C53.1523 8.25 55 10.0977 55 12.375C55 14.6094 53.2297 16.4227 51.0125 16.5L41.3359 38.0102C40.4508 39.9867 38.4828 41.25 36.3172 41.25H18.6828C16.5172 41.25 14.5578 39.9781 13.6641 38.0102L3.9875 16.5C1.77031 16.4227 0 14.6094 0 12.375C0 10.0977 1.84766 8.25 4.125 8.25C6.40234 8.25 8.25 10.0977 8.25 12.375C8.25 13.243 7.98359 14.0422 7.52812 14.7039L16.5 16.5L25.618 8.51641C24.0969 7.80312 23.0398 6.25625 23.0398 4.46875C23.0398 2.00234 25.0422 0 27.5086 0C29.975 0 31.9773 2.00234 31.9773 4.46875H31.9859Z" fill="#EFEFEF"/>
</svg>
