<svg width="43" height="43" viewBox="0 0 43 43" fill="none" xmlns="http://www.w3.org/2000/svg">
<g clip-path="url(#clip0_2026_1442)">
<path d="M21.5 3.90015C28.6249 3.90015 34.4424 9.52054 34.6871 16.6531L34.6945 17.0946V24.3023L37.1222 29.8545C37.2438 30.1323 37.3064 30.4323 37.3064 30.7355C37.3064 31.95 36.322 32.9346 35.1074 32.9346L26.7778 32.9373C26.7778 35.852 24.4149 38.215 21.5 38.215C18.6893 38.215 16.3917 36.0177 16.2312 33.2472L16.2215 32.9332L7.90951 32.9346C7.60809 32.9346 7.30988 32.8725 7.0334 32.7525C5.91943 32.2686 5.40863 30.9734 5.8925 29.8594L8.30559 24.3039V17.0944C8.30664 9.78506 14.2028 3.90015 21.5 3.90015ZM24.138 32.9332L18.8611 32.9373C18.8611 34.3946 20.0427 35.5761 21.5 35.5761C22.8717 35.5761 23.9989 34.5296 24.1268 33.1913L24.138 32.9332ZM21.5 6.53903C15.659 6.53903 10.9453 11.2437 10.9445 17.0946V24.8522L8.58007 30.2957H34.435L32.0556 24.854L32.0558 17.1172L32.0492 16.721C31.8538 11.0325 27.2028 6.53903 21.5 6.53903ZM37.3334 14.9022H40.8519C41.5806 14.9022 42.1713 15.4929 42.1713 16.2216C42.1713 16.8896 41.6749 17.4416 41.031 17.529L40.8519 17.5411H37.3334C36.6047 17.5411 36.0139 16.9503 36.0139 16.2216C36.0139 15.5536 36.5104 15.0016 37.1543 14.9142L37.3334 14.9022ZM2.14818 14.9022H5.6667C6.3954 14.9022 6.98614 15.4929 6.98614 16.2216C6.98614 16.8896 6.48977 17.4416 5.84574 17.529L5.6667 17.5411H2.14818C1.41947 17.5411 0.828735 16.9503 0.828735 16.2216C0.828735 15.5536 1.32512 15.0016 1.96914 14.9142L2.14818 14.9022ZM40.1482 4.87439C40.5456 5.40437 40.4842 6.13604 40.0317 6.59318L39.8843 6.72161L36.3658 9.3605C35.7827 9.79773 34.9557 9.67958 34.5185 9.09661C34.1211 8.56663 34.1825 7.83496 34.635 7.37781L34.7824 7.24939L38.3009 4.6105C38.884 4.17327 39.711 4.29142 40.1482 4.87439ZM4.69911 4.6105L8.21762 7.24939C8.80059 7.68662 8.91874 8.51364 8.48151 9.09661C8.04428 9.67958 7.21726 9.79773 6.63429 9.3605L3.11577 6.72161C2.53281 6.28438 2.41465 5.45735 2.85188 4.87439C3.28911 4.29142 4.11614 4.17327 4.69911 4.6105Z" fill="white"/>
</g>
<defs>
<clipPath id="clip0_2026_1442">
<rect width="42.2222" height="42.2222" fill="white" transform="translate(0.388916 0.388519)"/>
</clipPath>
</defs>
</svg>
