<svg width="43" height="43" viewBox="0 0 43 43" fill="none" xmlns="http://www.w3.org/2000/svg">
<path d="M28.5128 7.42459C28.2935 5.44592 26.6157 3.90706 24.5787 3.90706H18.4213C16.3842 3.90706 14.7065 5.44592 14.4872 7.42459L11.3843 7.42558C9.19813 7.42558 7.42592 9.19778 7.42592 11.3839V35.1339C7.42592 37.32 9.19813 39.0922 11.3843 39.0922H19.7432C19.7305 38.7536 19.7652 38.404 19.8537 38.0499L20.2529 36.4534H11.3843C10.6555 36.4534 10.0648 35.8626 10.0648 35.1339V11.3839C10.0648 10.6552 10.6555 10.0645 11.3843 10.0645L15.1297 10.0648C15.8399 11.1255 17.049 11.8237 18.4213 11.8237H24.5787C25.9509 11.8237 27.1602 11.1254 27.8703 10.0647L31.6157 10.0645C32.3444 10.0645 32.9352 10.6552 32.9352 11.3839V21.2544C33.7041 20.5504 34.6172 20.0919 35.5741 19.879V11.3839C35.5741 9.19778 33.8018 7.42558 31.6157 7.42558L28.5128 7.42459ZM28.5279 7.59438L28.537 7.86539C28.537 7.7743 28.534 7.68392 28.5279 7.59438ZM18.4213 6.54595H24.5787C25.3074 6.54595 25.8981 7.13669 25.8981 7.86539C25.8981 8.59409 25.3074 9.18484 24.5787 9.18484H18.4213C17.6926 9.18484 17.1018 8.59409 17.1018 7.86539C17.1018 7.13669 17.6926 6.54595 18.4213 6.54595ZM23.8855 30.2959H14.463C13.7343 30.2959 13.1435 30.8867 13.1435 31.6154C13.1435 32.3441 13.7343 32.9348 14.463 32.9348H21.4701C21.7248 32.5323 22.0243 32.1572 22.3641 31.8174L23.8855 30.2959ZM21.5 25.8978H14.463C13.7343 25.8978 13.1435 25.307 13.1435 24.5784C13.1435 23.8497 13.7343 23.2589 14.463 23.2589H21.5C22.2287 23.2589 22.8194 23.8497 22.8194 24.5784C22.8194 25.307 22.2287 25.8978 21.5 25.8978ZM28.537 18.8608H14.463C13.7343 18.8608 13.1435 18.27 13.1435 17.5413C13.1435 16.8126 13.7343 16.2219 14.463 16.2219H28.537C29.2657 16.2219 29.8565 16.8126 29.8565 17.5413C29.8565 18.27 29.2657 18.8608 28.537 18.8608ZM33.9906 22.6775L23.6065 33.0613C23.0012 33.6667 22.5717 34.4253 22.364 35.256L21.5588 38.4767C21.2087 39.8772 22.4774 41.146 23.878 40.7957L27.0987 39.9905C27.9292 39.7829 28.6878 39.3535 29.2933 38.748L39.6772 28.3641C41.2475 26.7938 41.2475 24.2478 39.6772 22.6775C38.1069 21.107 35.5609 21.107 33.9906 22.6775Z" fill="white"/>
</svg>
