<svg width="43" height="43" viewBox="0 0 43 43" fill="none" xmlns="http://www.w3.org/2000/svg">
<path d="M16.662 3.90704C17.3907 3.90704 17.9815 4.49779 17.9815 5.22649V9.62464C17.9815 10.3533 17.3907 10.9441 16.662 10.9441C15.9333 10.9441 15.3426 10.3533 15.3426 9.62464V5.22649C15.3426 4.49779 15.9333 3.90704 16.662 3.90704ZM8.25216 7.37245C8.76741 6.85716 9.60285 6.85713 10.1181 7.37238L13.1968 10.4509C13.7121 10.9661 13.7122 11.8016 13.1969 12.3168C12.6817 12.8322 11.8462 12.8322 11.3309 12.3169L8.25223 9.23843C7.73692 8.72317 7.73691 7.88774 8.25216 7.37245ZM25.0718 7.37241C25.5871 7.8877 25.5871 8.72312 25.0718 9.23839L21.9931 12.3171C21.4778 12.8324 20.6425 12.8324 20.1272 12.3171C19.612 11.8018 19.612 10.9664 20.1272 10.4511L23.2059 7.37241C23.7212 6.85715 24.5565 6.85715 25.0718 7.37241ZM4.78703 15.782C4.78703 15.0533 5.37777 14.4626 6.10648 14.4626H10.5046C11.2333 14.4626 11.8241 15.0533 11.8241 15.782C11.8241 16.5107 11.2333 17.1015 10.5046 17.1015H6.10648C5.37777 17.1015 4.78703 16.5107 4.78703 15.782ZM19.173 15.3169C17.6679 14.0268 15.3426 15.0963 15.3426 17.0787V36.9122C15.3426 39.0421 17.972 40.0468 19.3922 38.4594L23.992 33.3185C24.4763 32.7772 25.1594 32.4552 25.8853 32.4262L32.6409 32.156C34.7479 32.0717 35.6592 29.448 34.0583 28.0756L19.173 15.3169ZM17.9815 36.0786V17.7712L31.7253 29.5516L25.7797 29.7894C24.3405 29.847 22.9859 30.4854 22.0253 31.5589L17.9815 36.0786Z" fill="white"/>
</svg>
