<svg width="43" height="43" viewBox="0 0 43 43" fill="none" xmlns="http://www.w3.org/2000/svg">
<path d="M11.9167 7.45833L13.3333 8.91667L8.66667 13.625C6.08333 16.2083 4 18.5 4 18.75C4 19.2917 5.75 21 6.29167 21C6.54167 21 8.79167 18.9167 11.375 16.3333L16.0833 11.6667L17.5417 13.0833L19 14.5V10.25V6H14.75H10.5L11.9167 7.45833Z" fill="white"/>
<path d="M29 21V36H31.5H34V21V6H31.5H29V21Z" fill="white"/>
<path d="M20.6667 27.6667V36H23.1667H25.6667V27.6667V19.3333H23.1667H20.6667V27.6667Z" fill="white"/>
<path d="M12.3333 31V36H14.8333H17.3333V31V26H14.8333H12.3333V31Z" fill="white"/>
<path d="M4 32.6667V36H6.5H9V32.6667V29.3333H6.5H4V32.6667Z" fill="white"/>
</svg>
